<svg width="200" height="200" viewBox="0 0 200 200" fill="none" xmlns="http://www.w3.org/2000/svg">
<path d="M0 45.3163C0 20.2888 20.2888 0 45.3163 0H154.684C179.711 0 200 20.2888 200 45.3163V154.684C200 179.711 179.711 200 154.684 200H45.3163C20.2888 200 0 179.711 0 154.684V45.3163Z" fill="white"/>
<path d="M149.197 59.1326C149.197 59.1326 132.769 117.198 129.889 126.457C128.22 131.821 126.433 137.96 117.593 145.445C111.217 150.85 101.444 153.767 90.9755 150.605L89.9226 150.299C79.4742 147.138 72.7998 139.245 70.2771 131.169C66.8009 119.972 68.5291 113.812 69.9594 108.367C72.4225 98.9646 89.3068 41.0216 89.3068 41.0216L63.5632 33.2919C63.5632 33.2919 47.1356 89.0933 42.9642 105.124C40.5408 114.424 37.6009 124.928 44.454 144.324C49.42 158.335 62.0535 172.184 81.4804 178.037L83.4272 178.628C102.834 184.502 120.771 179.893 132.332 170.878C148.343 158.396 151.402 147.934 154.282 138.776C159.248 122.99 175 66.8829 175 66.8829L149.197 59.1326Z" fill="url(#paint0_linear_6304_38000)"/>
<path d="M174.186 51.4437L150.21 44.2033L134.379 47.283H134.339L133.902 48.8534C133.723 49.4653 116.283 111.1 113.382 120.4L113.283 120.706C111.674 125.907 109.827 131.801 101.583 139.041C100.093 140.347 98.4448 141.428 96.7167 142.345C86.1689 142.468 74.5484 137.002 69.6618 129.598C65.3712 123.092 64.5569 118.728 66.4042 112.242L91.0355 26.3167L66.0069 18.75L50.3541 21.8909L50.3144 21.8705L49.8575 23.4205C49.6787 24.012 32.1587 83.505 27.9475 99.6377L27.8086 100.168C25.3057 109.754 22.4651 120.624 29.0798 140.347C34.602 156.826 48.5068 169.859 66.2652 175.222L68.172 175.794C77.7862 178.69 87.6189 179.057 96.7563 177.099C97.1337 177.16 137.577 174.57 147.211 140.285C153.389 118.279 173.431 53.6667 173.63 53.0141L174.186 51.4437ZM150.051 47.5482L167.154 52.7082L160.738 55.2168L141.113 49.2818L150.051 47.5482ZM89.3471 144.895C86.1291 145.486 82.7721 145.466 79.4151 144.793L84.0037 143.467C84.4407 143.61 84.8578 143.773 85.3147 143.916C86.6455 144.324 87.9963 144.65 89.3471 144.895ZM67.0399 131.413C69.7215 135.492 74.0717 138.98 79.1569 141.489L73.6346 143.08C65.9274 140.02 60.0478 133.718 57.7237 125.764C54.6051 115.077 56.1743 109.101 57.5648 103.839L57.6442 103.513C59.9484 94.7632 75.5416 41.1033 77.8855 33.0267L86.7052 29.9266L63.365 111.283C61.2594 118.707 62.2527 124.153 67.0399 131.413ZM65.8878 22.0949L83.7653 27.4996L76.9321 29.9063L57.0085 23.8897L65.8878 22.0949ZM32.1588 139.286C25.8619 120.502 28.5633 110.162 30.947 101.025L31.086 100.494C34.8999 85.8708 49.6986 35.4538 52.4995 25.9292L74.6676 32.6392C71.827 42.3678 56.8298 94.0697 54.5653 102.677L54.4859 102.982C52.9961 108.673 51.2877 115.138 54.6845 126.702C57.2668 135.513 63.6828 142.549 72.1448 146.016L64.8946 171.307C49.2418 165.841 37.1049 154.032 32.1588 139.286ZM67.9139 172.306L75.1443 147.097L75.919 147.342C85.7318 150.299 96.1009 148.138 103.649 141.529C112.608 133.677 114.574 127.314 116.322 121.705L116.422 121.399C119.064 112.895 133.743 61.111 136.524 51.3621L158.772 58.0925C156.07 67.6578 141.808 118.218 137.299 132.637L137.14 133.188C134.319 142.182 131.121 152.38 115.945 164.658C103.411 174.774 85.9304 177.792 69.1652 172.714L67.9139 172.306ZM114.634 169.573C115.746 168.818 116.839 168.043 117.892 167.187C133.842 154.297 137.199 143.589 140.159 134.146L140.338 133.596C145.006 118.707 160.023 65.4348 162.049 58.2149L169.677 55.2371C165.545 68.5756 149.634 120.176 144.211 139.408C139.404 156.5 125.936 165.188 114.634 169.573Z" fill="black"/>
<defs>
<linearGradient id="paint0_linear_6304_38000" x1="45.0174" y1="97.2792" x2="157.159" y2="129.443" gradientUnits="userSpaceOnUse">
<stop offset="0.3602" stop-color="#05BB44"/>
<stop offset="0.5239" stop-color="#76CD3F"/>
<stop offset="0.6398" stop-color="#C2D93B"/>
</linearGradient>
</defs>
</svg>
