<svg width="508" height="508" viewBox="0 0 508 508" fill="none" xmlns="http://www.w3.org/2000/svg">
<g filter="url(#filter0_d)">
<rect x="4" width="500" height="500" rx="57" fill="white"/>
<path d="M371.449 156.445C371.449 156.445 332.899 289.37 326.14 310.567C322.224 322.846 318.029 336.9 297.285 354.035C282.322 366.408 259.388 373.084 234.823 365.847L232.352 365.147C207.833 357.91 192.171 339.841 186.251 321.352C178.093 295.72 182.149 281.62 185.505 269.153C191.285 247.63 230.907 114.985 230.907 114.985L170.495 97.2896C170.495 97.2896 131.945 225.032 122.156 261.73C116.469 283.02 109.57 307.065 125.652 351.467C137.306 383.542 166.952 415.245 212.541 428.645L217.109 429.999C262.651 443.445 304.744 432.893 331.873 412.257C369.444 383.683 376.623 359.731 383.382 338.767C395.035 302.63 432 174.187 432 174.187L371.449 156.445Z" fill="url(#paint0_linear)"/>
<path d="M430.089 138.843L373.826 122.268L336.674 129.319H336.581L335.555 132.914C335.136 134.314 294.209 275.41 287.403 296.7L287.17 297.401C283.394 309.306 279.059 322.8 259.714 339.374C256.218 342.362 252.349 344.837 248.294 346.938C223.542 347.218 196.272 334.706 184.805 317.757C174.737 302.863 172.826 292.872 177.161 278.024L234.962 81.3218L176.228 64L139.497 71.1901L139.403 71.1436L138.331 74.6919C137.912 76.0458 96.7979 212.239 86.9157 249.17L86.5896 250.384C80.7163 272.328 74.0502 297.214 89.5727 342.363C102.531 380.088 135.161 409.922 176.834 422.202L181.309 423.509C203.87 430.139 226.945 430.979 248.387 426.497C249.273 426.637 344.179 420.707 366.787 342.222C381.284 291.845 428.318 143.932 428.784 142.438L430.089 138.843ZM373.453 129.926L413.587 141.738L398.531 147.481L352.476 133.894L373.453 129.926ZM231 352.774C223.449 354.128 215.571 354.082 207.693 352.541L218.461 349.506C219.486 349.833 220.465 350.206 221.537 350.533C224.66 351.467 227.83 352.214 231 352.774ZM178.653 321.913C184.945 331.25 195.154 339.234 207.087 344.977L194.128 348.619C176.042 341.615 162.244 327.189 156.79 308.98C149.472 284.514 153.154 270.834 156.417 258.788L156.604 258.041C162.011 238.012 198.603 115.172 204.104 96.6827L224.8 89.5858L170.029 275.83C165.088 292.825 167.419 305.291 178.653 321.913ZM175.949 71.6571L217.902 84.0297L201.866 89.5392L155.112 75.7658L175.949 71.6571ZM96.7981 339.935C82.0215 296.934 88.3608 273.262 93.9545 252.345L94.2808 251.131C103.231 217.655 137.958 102.239 144.531 80.4347L196.552 95.7956C189.886 118.066 154.693 236.424 149.379 256.127L149.192 256.827C145.696 269.854 141.687 284.654 149.658 311.127C155.718 331.297 170.774 347.405 190.632 355.342L173.618 413.237C136.886 400.724 108.405 373.691 96.7981 339.935ZM180.704 415.525L197.671 357.817L199.489 358.377C222.516 365.147 246.849 360.198 264.562 345.07C285.585 327.095 290.2 312.528 294.302 299.688L294.535 298.988C300.735 279.519 335.183 160.974 341.709 138.656L393.916 154.064C387.577 175.961 354.108 291.704 343.527 324.714L343.154 325.974C336.534 346.565 329.03 369.909 293.416 398.016C264.003 421.174 222.982 428.084 183.64 416.459L180.704 415.525ZM290.34 409.268C292.95 407.541 295.514 405.767 297.985 403.806C335.416 374.298 343.294 349.786 350.239 328.169L350.658 326.908C361.613 292.825 396.853 170.872 401.608 154.344L419.508 147.527C409.812 178.062 372.474 296.187 359.748 340.215C348.468 379.341 316.863 399.23 290.34 409.268Z" fill="black"/>
</g>
<defs>
<filter id="filter0_d" x="0" y="0" width="508" height="508" filterUnits="userSpaceOnUse" color-interpolation-filters="sRGB">
<feFlood flood-opacity="0" result="BackgroundImageFix"/>
<feColorMatrix in="SourceAlpha" type="matrix" values="0 0 0 0 0 0 0 0 0 0 0 0 0 0 0 0 0 0 127 0"/>
<feOffset dy="4"/>
<feGaussianBlur stdDeviation="2"/>
<feColorMatrix type="matrix" values="0 0 0 0 0 0 0 0 0 0 0 0 0 0 0 0 0 0 0.25 0"/>
<feBlend mode="normal" in2="BackgroundImageFix" result="effect1_dropShadow"/>
<feBlend mode="normal" in="SourceGraphic" in2="effect1_dropShadow" result="shape"/>
</filter>
<linearGradient id="paint0_linear" x1="126.974" y1="243.771" x2="389.122" y2="320.845" gradientUnits="userSpaceOnUse">
<stop offset="0.3602" stop-color="#05BB44"/>
<stop offset="0.5239" stop-color="#76CD3F"/>
<stop offset="0.6398" stop-color="#C2D93B"/>
</linearGradient>
</defs>
</svg>
