<svg width="350" height="151" viewBox="0 0 350 151" fill="none" xmlns="http://www.w3.org/2000/svg">
<path d="M167.891 52.0486V86.0245C167.891 89.9034 167.017 93.3034 165.269 96.2245C163.545 99.1456 161.043 101.384 157.763 102.941C154.483 104.497 150.604 105.275 146.126 105.275C139.374 105.275 134.131 103.551 130.396 100.103C126.66 96.6316 124.793 91.8907 124.793 85.8809V52.0486H135.891V84.1929C135.891 88.2393 136.705 91.2083 138.333 93.0999C139.961 94.9914 142.655 95.9372 146.414 95.9372C150.053 95.9372 152.687 94.9914 154.315 93.0999C155.967 91.1844 156.793 88.1914 156.793 84.121V52.0486H167.891ZM180.749 104.557V52.0486H191.883V104.557H180.749ZM200.682 89.3288V80.3499H219.969V89.3288H200.682ZM271.04 104.557H258.398L244.642 82.433L239.938 85.809V104.557H228.804V52.0486H239.938V76.076L244.319 69.8985L258.542 52.0486H270.897L252.58 75.2858L271.04 104.557ZM276.32 54.0239C276.32 50.4563 278.307 48.6725 282.282 48.6725C286.256 48.6725 288.244 50.4563 288.244 54.0239C288.244 55.7239 287.741 57.0528 286.735 58.0105C285.754 58.9443 284.269 59.4112 282.282 59.4112C278.307 59.4112 276.32 57.6155 276.32 54.0239ZM287.741 104.557H276.787V64.4035H287.741V104.557ZM316.186 96.5477C318.101 96.5477 320.4 96.1287 323.082 95.2907V103.444C320.352 104.665 317 105.275 313.025 105.275C308.644 105.275 305.447 104.174 303.436 101.971C301.449 99.7442 300.455 96.4161 300.455 91.9865V72.6281H295.211V67.995L301.245 64.3316L304.406 55.8556H311.409V64.4035H322.651V72.6281H311.409V91.9865C311.409 93.5428 311.84 94.6921 312.702 95.4344C313.588 96.1766 314.749 96.5477 316.186 96.5477Z" fill="#151515"/>
<path d="M86.3965 52.7069C86.3965 52.7069 78.093 81.2921 76.6371 85.8505C75.7937 88.4911 74.8901 91.5133 70.4221 95.1981C67.1991 97.8588 62.2592 99.2946 56.9679 97.7383L56.4357 97.5877C51.1545 96.0315 47.7809 92.1458 46.5057 88.1698C44.7487 82.6576 45.6222 79.6254 46.3451 76.9446C47.5901 72.3159 56.1245 43.791 56.1245 43.791L43.1121 39.9857C43.1121 39.9857 34.8086 67.4564 32.7001 75.3482C31.4752 79.9266 29.9892 85.0974 33.4532 94.6459C35.9633 101.544 42.349 108.361 52.1686 111.243L53.1526 111.534C62.9621 114.426 72.0286 112.156 77.8721 107.719C85.9647 101.574 87.5109 96.423 88.9668 91.9149C91.4769 84.1436 99.439 56.5223 99.439 56.5223L86.3965 52.7069Z" fill="url(#paint0_linear_6240_37634)"/>
<path d="M99.0273 48.9217L86.9084 45.3574L78.9062 46.8735H78.8861L78.6652 47.6466C78.5749 47.9478 69.7593 78.29 68.2934 82.8685L68.2432 83.0191C67.43 85.5794 66.4962 88.4811 62.3294 92.0454C61.5764 92.688 60.7431 93.2202 59.8695 93.672C54.5381 93.7323 48.6644 91.0414 46.1944 87.3967C44.0257 84.1938 43.6141 82.0452 44.5478 78.8523L56.9979 36.5519L44.347 32.8269L36.4351 34.3731L36.415 34.3631L36.1841 35.1262C36.0937 35.4173 27.238 64.7053 25.1095 72.6473L25.0392 72.9084C23.7741 77.6274 22.3383 82.9789 25.6818 92.688C28.473 100.801 35.5014 107.217 44.4775 109.857L45.4414 110.138C50.3009 111.564 55.271 111.745 59.8896 110.781C60.0804 110.811 80.5227 109.536 85.3923 92.6579C88.5149 81.8243 98.6457 50.0161 98.7461 49.6949L99.0273 48.9217ZM86.8281 47.004L95.4729 49.5443L92.2299 50.7792L82.3099 47.8575L86.8281 47.004ZM56.1445 94.9271C54.518 95.2182 52.8211 95.2082 51.1243 94.8768L53.4436 94.2242C53.6645 94.2945 53.8753 94.3748 54.1063 94.4451C54.779 94.6459 55.4618 94.8066 56.1445 94.9271ZM44.8691 88.2903C46.2246 90.2984 48.4234 92.0153 50.9938 93.2503L48.2025 94.0335C44.3068 92.5274 41.3349 89.4249 40.1602 85.5091C38.5838 80.2479 39.377 77.3061 40.0798 74.7156L40.12 74.555C41.2846 70.2476 49.1664 43.8312 50.3512 39.8552L54.8091 38.3291L43.0116 78.3804C41.9473 82.0351 42.4494 84.7159 44.8691 88.2903ZM44.2868 34.4735L53.3232 37.1342L49.8692 38.319L39.7986 35.3571L44.2868 34.4735ZM27.2381 92.1659C24.0553 82.9187 25.4207 77.8282 26.6256 73.3301L26.6959 73.069C28.6236 65.87 36.1038 41.05 37.5195 36.3611L48.7246 39.6645C47.2888 44.4538 39.7083 69.9063 38.5637 74.1433L38.5236 74.2939C37.7705 77.0952 36.907 80.278 38.6239 85.971C39.9292 90.3084 43.1722 93.7724 47.4495 95.4793L43.7847 107.929C35.8729 105.239 29.7382 99.4252 27.2381 92.1659ZM45.3109 108.421L48.9656 96.0114L49.3572 96.1319C54.3171 97.5878 59.5583 96.5235 63.3736 93.2704C67.9019 89.4048 68.8959 86.2722 69.7795 83.5111L69.8296 83.3605C71.165 79.1736 78.5849 53.6809 79.9906 48.8816L91.2359 52.1949C89.8704 56.9039 82.6613 81.7942 80.3822 88.8927L80.3018 89.1638C78.8761 93.5917 77.2596 98.6119 69.5887 104.656C63.2532 109.636 54.4175 111.122 45.9434 108.622L45.3109 108.421ZM68.926 107.076C69.4882 106.704 70.0405 106.323 70.5726 105.901C78.6351 99.5557 80.332 94.2845 81.828 89.6357L81.9183 89.3647C84.2778 82.0351 91.8684 55.8095 92.8925 52.2552L96.7481 50.7893C94.6597 57.3557 86.6173 82.758 83.8762 92.2262C81.4464 100.64 74.639 104.917 68.926 107.076Z" fill="black"/>
<defs>
<linearGradient id="paint0_linear_6240_37634" x1="33.7379" y1="71.4862" x2="90.1887" y2="88.1101" gradientUnits="userSpaceOnUse">
<stop offset="0.3602" stop-color="#05BB44"/>
<stop offset="0.5239" stop-color="#76CD3F"/>
<stop offset="0.6398" stop-color="#C2D93B"/>
</linearGradient>
</defs>
</svg>
