<svg width="500" height="500" viewBox="0 0 500 500" fill="none" xmlns="http://www.w3.org/2000/svg">
<g filter="url(#filter0_d)">
<path d="M367.449 156.445C367.449 156.445 328.899 289.37 322.14 310.567C318.224 322.846 314.029 336.9 293.285 354.035C278.322 366.408 255.388 373.084 230.823 365.847L228.352 365.147C203.833 357.91 188.171 339.841 182.251 321.352C174.093 295.72 178.149 281.62 181.505 269.153C187.285 247.63 226.907 114.985 226.907 114.985L166.495 97.2896C166.495 97.2896 127.945 225.032 118.156 261.73C112.469 283.02 105.57 307.065 121.652 351.467C133.306 383.542 162.952 415.245 208.541 428.645L213.109 429.999C258.651 443.445 300.744 432.893 327.873 412.257C365.444 383.683 372.623 359.731 379.382 338.767C391.035 302.63 428 174.187 428 174.187L367.449 156.445Z" fill="url(#paint0_linear)"/>
<path d="M426.089 138.843L369.826 122.268L332.674 129.319H332.581L331.555 132.914C331.136 134.314 290.209 275.41 283.403 296.7L283.17 297.401C279.394 309.306 275.059 322.8 255.714 339.374C252.218 342.362 248.349 344.837 244.294 346.938C219.542 347.218 192.272 334.706 180.805 317.757C170.737 302.863 168.826 292.872 173.161 278.024L230.962 81.3218L172.228 64L135.497 71.1901L135.403 71.1436L134.331 74.6919C133.912 76.0458 92.7979 212.239 82.9157 249.17L82.5896 250.384C76.7163 272.328 70.0502 297.214 85.5727 342.363C98.5314 380.088 131.161 409.922 172.834 422.202L177.309 423.509C199.87 430.139 222.945 430.979 244.387 426.497C245.273 426.637 340.179 420.707 362.787 342.222C377.284 291.845 424.318 143.932 424.784 142.438L426.089 138.843ZM369.453 129.926L409.587 141.738L394.531 147.481L348.476 133.894L369.453 129.926ZM227 352.774C219.449 354.128 211.571 354.082 203.693 352.541L214.461 349.506C215.486 349.833 216.465 350.206 217.537 350.533C220.66 351.467 223.83 352.214 227 352.774ZM174.653 321.913C180.945 331.25 191.154 339.234 203.087 344.977L190.128 348.619C172.042 341.615 158.244 327.189 152.79 308.98C145.472 284.514 149.154 270.834 152.417 258.788L152.604 258.041C158.011 238.012 194.603 115.172 200.104 96.6827L220.8 89.5858L166.029 275.83C161.088 292.825 163.419 305.291 174.653 321.913ZM171.949 71.6571L213.902 84.0297L197.866 89.5392L151.112 75.7658L171.949 71.6571ZM92.7981 339.935C78.0215 296.934 84.3608 273.262 89.9545 252.345L90.2808 251.131C99.2307 217.655 133.958 102.239 140.531 80.4347L192.552 95.7956C185.886 118.066 150.693 236.424 145.379 256.127L145.192 256.827C141.696 269.854 137.687 284.654 145.658 311.127C151.718 331.297 166.774 347.405 186.632 355.342L169.618 413.237C132.886 400.724 104.405 373.691 92.7981 339.935ZM176.704 415.525L193.671 357.817L195.489 358.377C218.516 365.147 242.849 360.198 260.562 345.07C281.585 327.095 286.2 312.528 290.302 299.688L290.535 298.988C296.735 279.519 331.183 160.974 337.709 138.656L389.916 154.064C383.577 175.961 350.108 291.704 339.527 324.714L339.154 325.974C332.534 346.565 325.03 369.909 289.416 398.016C260.003 421.174 218.982 428.084 179.64 416.459L176.704 415.525ZM286.34 409.268C288.95 407.541 291.514 405.767 293.985 403.806C331.416 374.298 339.294 349.786 346.239 328.169L346.658 326.908C357.613 292.825 392.853 170.872 397.608 154.344L415.508 147.527C405.812 178.062 368.474 296.187 355.748 340.215C344.468 379.341 312.863 399.23 286.34 409.268Z" fill="black"/>
</g>
<defs>
<filter id="filter0_d" x="-4" y="0" width="508" height="508" filterUnits="userSpaceOnUse" color-interpolation-filters="sRGB">
<feFlood flood-opacity="0" result="BackgroundImageFix"/>
<feColorMatrix in="SourceAlpha" type="matrix" values="0 0 0 0 0 0 0 0 0 0 0 0 0 0 0 0 0 0 127 0"/>
<feOffset dy="4"/>
<feGaussianBlur stdDeviation="2"/>
<feColorMatrix type="matrix" values="0 0 0 0 0 0 0 0 0 0 0 0 0 0 0 0 0 0 0.25 0"/>
<feBlend mode="normal" in2="BackgroundImageFix" result="effect1_dropShadow"/>
<feBlend mode="normal" in="SourceGraphic" in2="effect1_dropShadow" result="shape"/>
</filter>
<linearGradient id="paint0_linear" x1="122.974" y1="243.771" x2="385.122" y2="320.845" gradientUnits="userSpaceOnUse">
<stop offset="0.3602" stop-color="#05BB44"/>
<stop offset="0.5239" stop-color="#76CD3F"/>
<stop offset="0.6398" stop-color="#C2D93B"/>
</linearGradient>
</defs>
</svg>
